<svg width="99" height="109" viewBox="0 0 99 109" fill="none" xmlns="http://www.w3.org/2000/svg">
<path opacity="0.6" d="M2.04874 108.408C1.82342 108.912 1.232 109.138 0.727768 108.913C0.223536 108.688 -0.00256921 108.096 0.222749 107.592L2.04874 108.408ZM8.56953 91.3641L9.48252 91.7721L8.56953 91.3641ZM82.409 11.6922L81.9329 10.8128L82.409 11.6922ZM97.5422 2.69566C98.0716 2.85317 98.373 3.40998 98.2155 3.93933L95.6487 12.5655C95.4912 13.0949 94.9344 13.3963 94.405 13.2388C93.8757 13.0813 93.5742 12.5245 93.7318 11.9951L96.0133 4.3274L88.3456 2.0458C87.8162 1.8883 87.5148 1.33149 87.6723 0.802137C87.8298 0.272797 88.3866 -0.0286422 88.916 0.128876L97.5422 2.69566ZM0.222749 107.592L7.65653 90.9562L9.48252 91.7721L2.04874 108.408L0.222749 107.592ZM81.9329 10.8128L96.7809 2.77472L97.7331 4.53353L82.885 12.5716L81.9329 10.8128ZM7.65653 90.9562C22.9212 56.7958 49.0292 28.6255 81.9329 10.8128L82.885 12.5716C50.3685 30.1748 24.5676 58.0136 9.48252 91.7721L7.65653 90.9562Z" fill="url(#paint0_linear_4_4059)"/>
<defs>
<linearGradient id="paint0_linear_4_4059" x1="1.1315" y1="107.998" x2="108.504" y2="16.9104" gradientUnits="userSpaceOnUse">
<stop stop-color="#AB7AF3"/>
<stop offset="1" stop-color="#5367F3"/>
</linearGradient>
</defs>
</svg>
