<svg width="95" height="106" viewBox="0 0 95 106" fill="none" xmlns="http://www.w3.org/2000/svg">
<path opacity="0.6" d="M1.92546 105.379C1.71623 105.89 1.13227 106.135 0.621151 105.925C0.110035 105.716 -0.134691 105.132 0.0745414 104.621L1.92546 105.379ZM5.06122 95.0792L5.98668 95.458L5.06122 95.0792ZM87.1144 7.33779L86.6744 6.43977L87.1144 7.33779ZM93.6388 3.35414C94.1613 3.53302 94.4398 4.10163 94.261 4.62414L91.3457 13.1389C91.1668 13.6614 90.5982 13.94 90.0757 13.7611C89.5532 13.5822 89.2746 13.0136 89.4535 12.4911L92.0449 4.92238L84.4762 2.33102C83.9537 2.15213 83.6751 1.58353 83.854 1.06102C84.0329 0.538508 84.6015 0.259954 85.124 0.438854L93.6388 3.35414ZM0.0745414 104.621L4.13576 94.7003L5.98668 95.458L1.92546 105.379L0.0745414 104.621ZM86.6744 6.43977L92.8749 3.40219L93.7548 5.19824L87.5543 8.23581L86.6744 6.43977ZM4.13576 94.7003C19.9109 56.1645 49.2808 24.7586 86.6744 6.43977L87.5543 8.23581C50.6006 26.3391 21.5762 57.3755 5.98668 95.458L4.13576 94.7003Z" fill="url(#paint0_linear_4_4060)"/>
<defs>
<linearGradient id="paint0_linear_4_4060" x1="0.995982" y1="104.998" x2="97.5054" y2="8.48889" gradientUnits="userSpaceOnUse">
<stop stop-color="#AB7AF3"/>
<stop offset="1" stop-color="#5367F3"/>
</linearGradient>
</defs>
</svg>
