<svg width="93" height="106" viewBox="0 0 93 106" fill="none" xmlns="http://www.w3.org/2000/svg">
<path opacity="0.6" d="M1.30224 2.64002C0.817437 2.37546 0.638891 1.76799 0.903442 1.28319C1.16799 0.798394 1.77546 0.619848 2.26026 0.884399L1.30224 2.64002ZM6.59826 4.39081L7.07727 3.513L6.59826 4.39081ZM87.0961 102.795L88.0514 102.499L88.0514 102.499L87.0961 102.795ZM88.5785 105.194C88.3208 105.682 87.716 105.87 87.2275 105.612L79.267 101.413C78.7785 101.155 78.5914 100.55 78.849 100.062C79.1067 99.5735 79.7116 99.3864 80.2001 99.644L87.2761 103.376L91.0084 96.3004C91.2661 95.8119 91.871 95.6248 92.3595 95.8825C92.848 96.1401 93.0351 96.745 92.7774 97.2335L88.5785 105.194ZM2.26026 0.884399L7.07727 3.513L6.11925 5.26862L1.30224 2.64002L2.26026 0.884399ZM88.0514 102.499L88.6493 104.432L86.7387 105.023L86.1408 103.09L88.0514 102.499ZM7.07727 3.513C45.9237 24.7112 74.9728 60.2219 88.0514 102.499L86.1408 103.09C73.216 61.3104 44.5086 26.2174 6.11925 5.26862L7.07727 3.513Z" fill="url(#paint0_linear_4_4057)"/>
<defs>
<linearGradient id="paint0_linear_4_4057" x1="1.78317" y1="1.75852" x2="87.2883" y2="105.065" gradientUnits="userSpaceOnUse">
<stop stop-color="#AB7AF3"/>
<stop offset="1" stop-color="#5367F3"/>
</linearGradient>
</defs>
</svg>
