<svg width="92" height="98" viewBox="0 0 92 98" fill="none" xmlns="http://www.w3.org/2000/svg">
<path opacity="0.6" d="M84.0868 89.8459L83.0884 89.9036L84.0868 89.8459ZM85.247 97.6651C84.8797 98.0775 84.2476 98.114 83.8352 97.7467L77.1146 91.7606C76.7022 91.3932 76.6656 90.7611 77.033 90.3487C77.4003 89.9363 78.0324 89.8998 78.4448 90.2671L84.4187 95.5881L89.7397 89.6142C90.107 89.2018 90.7391 89.1653 91.1515 89.5326C91.5639 89.8999 91.6005 90.532 91.2331 90.9445L85.247 97.6651ZM85.0851 89.7882L85.4986 96.9422L83.502 97.0576L83.0884 89.9036L85.0851 89.7882ZM0.61169 0.783034C46.7111 5.87326 82.4086 43.4859 85.0851 89.7882L83.0884 89.9036C80.4683 44.5754 45.5217 7.75409 0.392187 2.77095L0.61169 0.783034Z" fill="url(#paint0_linear_8_17075)"/>
<defs>
<linearGradient id="paint0_linear_8_17075" x1="-5.10575" y1="7.38252" x2="84.5068" y2="96.9951" gradientUnits="userSpaceOnUse">
<stop stop-color="#AB7AF3"/>
<stop offset="1" stop-color="#5367F3"/>
</linearGradient>
</defs>
</svg>
