<svg width="109" height="119" viewBox="0 0 109 119" fill="none" xmlns="http://www.w3.org/2000/svg">
<path opacity="0.6" d="M101.328 113.637L100.341 113.794L100.341 113.794L101.328 113.637ZM102.824 118.545C102.5 118.992 101.874 119.091 101.427 118.767L94.1438 113.48C93.6968 113.156 93.5975 112.53 93.9219 112.083C94.2463 111.637 94.8716 111.537 95.3186 111.862L101.793 116.561L106.492 110.087C106.817 109.64 107.442 109.54 107.889 109.865C108.336 110.189 108.435 110.814 108.111 111.261L102.824 118.545ZM102.316 113.48L103.002 117.801L101.027 118.114L100.341 113.794L102.316 113.48ZM0.759956 0.81101C53.8932 15.0138 93.6874 59.1625 102.316 113.48L100.341 113.794C91.8361 60.2565 52.6136 16.742 0.243479 2.74317L0.759956 0.81101Z" fill="url(#paint0_linear_4_4058)"/>
<defs>
<linearGradient id="paint0_linear_4_4058" x1="-6.82789" y1="9.10408" x2="102.021" y2="117.953" gradientUnits="userSpaceOnUse">
<stop stop-color="#AB7AF3"/>
<stop offset="1" stop-color="#5367F3"/>
</linearGradient>
</defs>
</svg>
