<svg width="73" height="107" viewBox="0 0 73 107" fill="none" xmlns="http://www.w3.org/2000/svg">
<path opacity="0.6" d="M57.0689 12.1409L56.5867 11.2648L57.0689 12.1409ZM71.5935 3.33978C72.1239 3.49361 72.4292 4.04831 72.2754 4.57874L69.7686 13.2226C69.6148 13.753 69.0601 14.0583 68.5296 13.9045C67.9992 13.7506 67.6939 13.1959 67.8477 12.6655L70.076 4.9821L62.3926 2.75385C61.8621 2.60002 61.5568 2.04532 61.7107 1.51489C61.8645 0.984465 62.4192 0.679169 62.9496 0.832999L71.5935 3.33978ZM56.5867 11.2648L70.8328 3.42413L71.7971 5.17628L57.5511 13.017L56.5867 11.2648ZM-5.00652e-08 107C2.95859e-05 67.1589 21.6829 30.4751 56.5867 11.2648L57.5511 13.017C23.2861 31.8757 2.00003 67.8881 2 107L-5.00652e-08 107Z" fill="url(#paint0_linear_8_17077)"/>
<defs>
<linearGradient id="paint0_linear_8_17077" x1="0.994498" y1="106.997" x2="87.5037" y2="20.4873" gradientUnits="userSpaceOnUse">
<stop stop-color="#AB7AF3"/>
<stop offset="1" stop-color="#5367F3"/>
</linearGradient>
</defs>
</svg>
